<?xml version="1.0" encoding="UTF-8"?>
<svg version="1.1" xmlns="http://www.w3.org/2000/svg" width="1280" height="294">
<path d="M0 0 C1.13302048 -0.00043808 2.26604095 -0.00087616 3.43339539 -0.00132751 C7.13977927 0.0007452 10.84569811 0.02400472 14.55200195 0.04760742 C17.1370265 0.05320876 19.72205425 0.05747632 22.30708313 0.06047058 C28.39126657 0.0707141 34.47526106 0.09430405 40.55937368 0.12451905 C48.17472334 0.1615075 55.79010034 0.17779935 63.40551758 0.1940918 C76.97140022 0.22320502 90.5369254 0.28331837 104.1027832 0.34057617 C104.1027832 17.17057617 104.1027832 34.00057617 104.1027832 51.34057617 C96.60430664 51.37795898 89.10583008 51.4153418 81.38012695 51.45385742 C76.62684885 51.48413697 71.87360819 51.51528482 67.12036133 51.54956055 C59.57749319 51.60386956 52.03469914 51.65498044 44.49169922 51.68701172 C38.40967662 51.7130402 32.32790303 51.75344005 26.24603462 51.80376244 C23.92687645 51.8204341 21.6076752 51.8319465 19.2884655 51.83819008 C16.03742303 51.84782758 12.78701807 51.87588397 9.53613281 51.90820312 C8.5794722 51.90676804 7.62281158 51.90533295 6.63716125 51.90385437 C0.35428384 51.99205822 -5.04554622 52.58396128 -9.7722168 57.15307617 C-12.01273596 61.50964122 -12.20771428 64.32283442 -10.7722168 69.02807617 C-8.70922291 72.6726987 -7.60174477 73.56790851 -3.8972168 75.34057617 C-1.03359441 75.79387775 -1.03359441 75.79387775 2.04785156 75.74121094 C3.22355209 75.75454971 4.39925262 75.76788849 5.61058044 75.78163147 C6.87515579 75.78174728 8.13973114 75.7818631 9.44262695 75.78198242 C11.45083341 75.8021731 13.45903981 75.82237408 15.46724033 75.84314632 C18.2805825 75.8687908 21.09392084 75.88132589 23.90734863 75.89355469 C29.46709404 75.91837356 35.02658159 75.9589176 40.586092 76.01545525 C42.50549895 76.03146424 44.42499628 76.0351716 46.34446716 76.03846741 C67.16003693 76.21457029 85.4345354 80.65347769 101.00512695 95.15307617 C112.62772279 107.27347406 117.50530164 122.3366219 117.40112305 138.83276367 C116.96889029 156.00180061 109.99354141 171.0000031 98.1027832 183.34057617 C83.48069638 197.16902999 66.45403641 201.5159985 46.92529297 201.45410156 C45.10959557 201.4543206 45.10959557 201.4543206 43.25721741 201.45454407 C39.95605947 201.45396888 36.65496491 201.44897121 33.35381818 201.44197011 C29.89717119 201.4356972 26.44052326 201.43512967 22.98387146 201.4339447 C16.44630895 201.43084297 9.90876325 201.42264524 3.37120813 201.41259521 C-4.07500124 201.40139806 -11.52121143 201.39591456 -18.96742713 201.39089978 C-34.27736841 201.38046161 -49.58728652 201.36213058 -64.8972168 201.34057617 C-64.8972168 184.18057617 -64.8972168 167.02057617 -64.8972168 149.34057617 C-59.49161377 149.31870239 -59.49161377 149.31870239 -53.97680664 149.29638672 C-42.0744238 149.24606568 -30.1721683 149.17962507 -18.26991844 149.10486126 C-11.05308875 149.05992287 -3.83630819 149.02050376 3.38061523 148.99414062 C9.67193579 148.97114461 15.96310061 148.93772882 22.25429761 148.89187461 C25.58453058 148.86796369 28.91457685 148.85077532 32.24489212 148.84296227 C35.96549698 148.83334908 39.68553913 148.80532141 43.40600586 148.77294922 C45.05678131 148.77510185 45.05678131 148.77510185 46.74090576 148.77729797 C52.25058636 148.70943469 56.38870773 148.53613802 61.1027832 145.34057617 C63.34463051 142.57563116 64.03690916 140.80169449 64.5402832 137.27807617 C63.99601374 133.62369551 63.02838244 132.5347756 60.1027832 130.34057617 C56.6593244 129.16107101 53.33765061 129.20977906 49.72045898 129.19873047 C48.42455841 129.19169601 47.12865784 129.18466156 45.79348755 129.17741394 C45.1025211 129.17559805 44.41155464 129.17378216 43.69964981 129.17191124 C41.51946877 129.16470024 39.33950694 129.14899455 37.15939331 129.13056946 C30.96119412 129.07835403 24.76311109 129.03027018 18.56469727 129.01464844 C14.76671085 129.00445204 10.96927274 128.97483118 7.17150497 128.93332863 C5.73733584 128.92116871 4.30308869 128.91586932 2.86886978 128.91812706 C-16.55705874 128.94115771 -33.31497954 123.02690928 -47.23706055 109.23120117 C-51.18244548 104.94399875 -54.16036346 100.46942465 -56.8972168 95.34057617 C-57.36772461 94.49108398 -57.83823242 93.6415918 -58.32299805 92.76635742 C-65.88414627 77.84479943 -66.70583708 60.42869229 -62.2097168 44.46557617 C-58.43998466 33.65452294 -52.95956185 25.43067456 -44.8972168 17.34057617 C-44.28233398 16.70249023 -43.66745117 16.0644043 -43.03393555 15.40698242 C-31.45552284 4.27484686 -15.67995561 -0.16181725 0 0 Z " fill="#000000" transform="translate(355.897216796875,88.659423828125)"/>
<path d="M0 0 C4.72785612 4.51295357 8.3464147 9.39924678 11.75 14.96875 C11.06035156 15.77957031 10.37070312 16.59039062 9.66015625 17.42578125 C4.46882835 23.53891634 -0.67969944 29.68100191 -5.74609375 35.8984375 C-13.55791948 45.47736889 -21.40972837 55.02104952 -29.41748047 64.43701172 C-32.97910195 68.63063996 -36.46119517 72.88483422 -39.93359375 77.15234375 C-42.52787266 80.30660192 -45.16606265 83.4207798 -47.8125 86.53125 C-51.01739191 90.29963939 -54.17687694 94.09121028 -57.25 97.96875 C-60.32312971 101.84629812 -63.48276241 105.63772109 -66.6875 109.40625 C-75.37563984 119.37813678 -75.37563984 119.37813678 -83.25 129.96875 C-67.67377761 130.59809232 -55.44769831 129.01575976 -42.25 119.96875 C-41.363125 119.39125 -40.47625 118.81375 -39.5625 118.21875 C-34.84659997 113.63030672 -31.04662863 107.92019615 -28.25 101.96875 C-23.89676656 102.41664004 -21.53790531 105.28168134 -18.63671875 108.25390625 C-18.10407913 108.78841904 -17.57143951 109.32293182 -17.0226593 109.87364197 C-15.89545361 111.00756623 -14.77184972 112.1450807 -13.65161133 113.28588867 C-11.96083078 115.00749387 -10.25993062 116.71851387 -8.55664062 118.42773438 C-3.41486255 123.60692576 1.65271548 128.80749063 6.37182617 134.38061523 C7.76528187 135.98636002 9.22974433 137.48338452 10.75 138.96875 C9.29952597 143.5394298 6.72501314 146.65383955 3.5 150.09375 C2.70480957 150.94199341 2.70480957 150.94199341 1.89355469 151.80737305 C-15.55939938 169.97523675 -39.69522221 182.49325694 -65.19140625 183.3046875 C-67.73162512 183.33485125 -70.27210448 183.34726745 -72.8125 183.34375 C-73.47541046 183.34320618 -74.13832092 183.34266235 -74.82131958 183.34210205 C-85.48479109 183.30191894 -95.14474012 182.4266604 -105.25 178.96875 C-105.8888916 178.75444336 -106.5277832 178.54013672 -107.18603516 178.31933594 C-133.61599321 169.26554328 -153.76039918 150.15560453 -166.16699219 125.40087891 C-179.31354162 97.95369365 -179.62963102 64.81205367 -169.7175293 36.27880859 C-160.17430329 10.40503649 -141.34936895 -9.00880658 -116.8125 -20.84375 C-76.55332211 -39.2306072 -32.04240053 -28.92716715 0 0 Z M-110.25 38.96875 C-120.62100991 52.78259517 -125.38806902 68.75500719 -122.96289062 86.01171875 C-122.04680514 91.40700674 -120.98225682 96.77197953 -119.25 101.96875 C-118.59 101.96875 -117.93 101.96875 -117.25 101.96875 C-115.80421537 100.4096131 -115.80421537 100.4096131 -114.3359375 98.33203125 C-113.4540979 97.14081665 -113.4540979 97.14081665 -112.55444336 95.92553711 C-111.91772705 95.05292236 -111.28101074 94.18030762 -110.625 93.28125 C-109.25998569 91.43425173 -107.89407145 89.58791827 -106.52734375 87.7421875 C-105.82077637 86.78538086 -105.11420898 85.82857422 -104.38623047 84.84277344 C-101.03156676 80.32950473 -97.6083224 75.86944561 -94.1875 71.40625 C-88.42166422 63.86571854 -82.74999272 56.26251561 -77.14331055 48.60302734 C-72.91110006 42.8311054 -68.56856833 37.1580578 -64.140625 31.53515625 C-62.55596867 29.38408351 -61.33072255 27.40037574 -60.25 24.96875 C-77.45311916 18.52399939 -98.19789265 25.63993636 -110.25 38.96875 Z " fill="#000000" transform="translate(652.25,110.03125)"/>
<path d="M0 0 C24.92975434 -0.75469109 47.72002848 7.31019178 66.390625 24.0859375 C83.18193147 39.90576156 93.38550333 62.20816991 94.7439003 85.23067474 C94.80587402 88.45592415 94.81032844 91.67559234 94.78955078 94.90136719 C94.78984283 96.11256226 94.79013489 97.32375732 94.79043579 98.57165527 C94.78929171 101.85190229 94.77935039 105.13197245 94.76528788 108.41218472 C94.75267619 111.85544993 94.75160188 115.29871964 94.74923706 118.74200439 C94.74305266 125.24400908 94.72668358 131.74594548 94.70653808 138.24792027 C94.68408371 145.65796327 94.67316181 153.06800975 94.66314721 160.47807837 C94.64231418 175.70417972 94.60567659 190.93019253 94.5625 206.15625 C77.4025 206.15625 60.2425 206.15625 42.5625 206.15625 C42.51351562 197.67035156 42.46453125 189.18445313 42.4140625 180.44140625 C42.37416611 174.37449005 42.33304803 168.30759174 42.29016876 162.24069691 C42.23481839 154.38631808 42.18232801 146.53195466 42.140625 138.67749023 C42.1075914 132.45758813 42.0676982 126.23777347 42.01970994 120.01796812 C41.99455736 116.72735656 41.97376703 113.43681299 41.95915604 110.14613533 C41.9422266 106.46456576 41.91317466 102.78327347 41.88134766 99.10180664 C41.87918747 98.02142624 41.87702728 96.94104584 41.87480164 95.82792664 C41.74491197 84.03380405 39.45481101 74.02866819 31.58984375 64.85546875 C23.31549201 56.88145645 13.93634674 53.39119252 2.50366211 53.56201172 C-8.03286253 54.13087028 -17.70086764 59.05050456 -24.89453125 66.70703125 C-31.62572335 75.227785 -33.03111015 85.16235804 -32.98339844 95.69604492 C-32.99373611 96.89734039 -33.00407379 98.09863586 -33.01472473 99.33633423 C-33.03897049 102.59399886 -33.04599539 105.85112536 -33.04500484 109.10886168 C-33.04815704 112.52686744 -33.0738226 115.94470696 -33.09698486 119.36262512 C-33.13737335 125.81858756 -33.15784491 132.27444944 -33.17095876 138.73051864 C-33.18688734 146.08743438 -33.2253272 153.44418039 -33.26555204 160.80099714 C-33.34771597 175.91938249 -33.39898388 191.0376786 -33.4375 206.15625 C-50.5975 206.15625 -67.7575 206.15625 -85.4375 206.15625 C-85.4375 139.49625 -85.4375 72.83625 -85.4375 4.15625 C-72.4375 4.15625 -72.4375 4.15625 -68.9375 6.5703125 C-67.62890625 8.12890625 -67.62890625 8.12890625 -66.4375 9.78125 C-66.01339844 10.30332031 -65.58929687 10.82539062 -65.15234375 11.36328125 C-64.30900843 12.40777912 -63.4816544 13.46540989 -62.671875 14.53613281 C-60.68090849 17.14927636 -58.55146857 19.64213738 -56.4375 22.15625 C-55.90382813 21.79273437 -55.37015625 21.42921875 -54.8203125 21.0546875 C-37.87716725 9.62246147 -20.73061892 0.94230086 0 0 Z " fill="#000000" transform="translate(908.4375,83.84375)"/>
<path d="M0 0 C19.47 0 38.94 0 59 0 C66.25 20.375 66.25 20.375 68.51269531 26.74365234 C69.1176855 28.44113528 69.7228195 30.13856697 70.328125 31.8359375 C70.63153809 32.6916333 70.93495117 33.5473291 71.24755859 34.42895508 C73.35984988 40.34437813 75.62937151 46.18341538 78 52 C78.94840508 51.75570251 78.94840508 51.75570251 79.91596985 51.50646973 C86.48446032 49.81525794 93.05422357 48.12906202 99.62475586 46.44580078 C102.07821269 45.81655935 104.53133974 45.18603064 106.98413086 44.55419922 C110.50549215 43.64734369 114.02800534 42.7450924 117.55078125 41.84375 C118.65086014 41.55939087 119.75093903 41.27503174 120.88435364 40.98205566 C121.90518539 40.72178589 122.92601715 40.46151611 123.9777832 40.19335938 C125.32680473 39.84694397 125.32680473 39.84694397 126.70307922 39.49353027 C129 39 129 39 132 39 C132.99 35.37 133.98 31.74 135 28 C138.3 18.76 141.6 9.52 145 0 C164.8 0 184.6 0 205 0 C203.08674047 6.37753177 201.15187735 12.51373773 198.75 18.6875 C198.41266846 19.56446533 198.07533691 20.44143066 197.7277832 21.3449707 C196.48858675 24.56463278 195.24408246 27.78222282 194 31 C192.0400153 36.08107426 190.0835329 41.16349858 188.1272583 46.2460022 C187.49468923 47.8894205 186.8619965 49.5327912 186.22918701 51.17611694 C180.7389427 65.43604888 175.29737909 79.71413816 169.875 94 C162.91354721 112.34011738 155.93488536 130.67355962 148.9375 149 C148.29660431 150.67908447 148.29660431 150.67908447 147.64276123 152.39208984 C145.18704767 158.8254111 142.72813972 165.25749858 140.26629639 171.68847656 C138.90553147 175.24704703 137.54877436 178.80713401 136.19189453 182.3671875 C135.27519481 184.76567458 134.35836903 187.16411348 133.44140625 189.5625 C133.01117661 190.69389404 132.58094696 191.82528809 132.13768005 192.9909668 C131.74105667 194.02648682 131.34443329 195.06200684 130.93579102 196.12890625 C130.58533218 197.04744385 130.23487335 197.96598145 129.87379456 198.91235352 C129 201 129 201 128 202 C126.37325222 202.09340434 124.74245949 202.11745171 123.11303711 202.11352539 C122.07203354 202.11344986 121.03102997 202.11337433 119.95848083 202.11329651 C118.8262056 202.10813522 117.69393036 202.10297394 116.52734375 202.09765625 C114.79817467 202.09553383 114.79817467 202.09553383 113.03407288 202.09336853 C109.33518936 202.08775005 105.63636536 202.07519442 101.9375 202.0625 C99.43684983 202.05748738 96.93619871 202.05292406 94.43554688 202.04882812 C88.29034412 202.03777462 82.14517631 202.02101852 76 202 C70.66915518 188.81478553 65.50857465 175.57372128 60.47851562 162.27099609 C58.4127361 156.80809923 56.34065432 151.34759146 54.26953125 145.88671875 C53.8383902 144.74947357 53.40724915 143.61222839 52.96304321 142.44052124 C47.72833246 128.63727177 42.45587365 114.84845387 37.18466187 101.05911255 C32.33878442 88.38141173 27.50244681 75.70026141 22.6953125 63.0078125 C22.26575256 61.87434387 21.83619263 60.74087524 21.39361572 59.57305908 C19.36041577 54.20800097 17.32935828 48.84215502 15.30273438 43.47460938 C11.74220409 34.06554125 8.13289583 24.69021157 4.22525024 15.41885376 C0 5.3573329 0 5.3573329 0 0 Z M78 54 C79 56 79 56 79 56 Z M79 56 C80.3631025 62.70646429 82.2259958 69.04905921 84.5 75.5 C84.96212891 76.85738281 84.96212891 76.85738281 85.43359375 78.2421875 C85.73394531 79.10070312 86.03429687 79.95921875 86.34375 80.84375 C86.61380859 81.61912109 86.88386719 82.39449219 87.16210938 83.19335938 C87.8599263 85.18965057 87.8599263 85.18965057 90 86 C92.30524054 84.99031228 94.47398022 83.92389377 96.6875 82.73828125 C97.34580811 82.39121628 98.00411621 82.04415131 98.68237305 81.68656921 C100.07655769 80.94821691 101.46851313 80.20564247 102.85839844 79.45922852 C104.98420851 78.32095561 107.12019715 77.20380081 109.2578125 76.08789062 C110.61004703 75.3684492 111.96163194 74.64778518 113.3125 73.92578125 C113.9521167 73.59330887 114.5917334 73.26083649 115.25073242 72.91828918 C118.63036827 71.07912532 120.76014084 69.7377801 122 66 C111.21215547 69.72358893 100.55795046 73.66616881 90 78 C89.75507812 77.18273437 89.51015625 76.36546875 89.2578125 75.5234375 C87.77452388 71.36838676 85.88199051 67.54678711 83.875 63.625 C83.50246094 62.88894531 83.12992187 62.15289062 82.74609375 61.39453125 C81.8343878 59.59449642 80.91770068 57.79698598 80 56 C79.67 56 79.34 56 79 56 Z M96 105 C97.16194152 111.46712188 99.1248748 117.09622349 102 123 C104.89779289 118.65331066 106.39980117 114.19701574 107 109 C106.10428028 105.7974267 104.85990403 103.8164261 103 101 C99.86676575 101 98.31979216 103.04649081 96 105 Z " fill="#000000" transform="translate(9,88)"/>
<path d="M0 0 C13.93527992 13.37128883 13.93527992 13.37128883 14.62890625 21.84765625 C13.34449768 23.85359192 13.34449768 23.85359192 11.34594727 25.81176758 C10.23468224 26.92235283 10.23468224 26.92235283 9.10096741 28.05537415 C8.28647629 28.83889755 7.47198517 29.62242096 6.6328125 30.4296875 C5.81014389 31.24386642 4.98747528 32.05804535 4.13987732 32.89689636 C1.50410469 35.4990314 -1.15174203 38.07956401 -3.80859375 40.66015625 C-5.5970629 42.41853991 -7.38419046 44.17828923 -9.16992188 45.93945312 C-13.55485715 50.25816601 -17.95646428 54.55931314 -22.37109375 58.84765625 C-24.39867685 56.19460476 -26.05465629 53.64088428 -27.55859375 50.66015625 C-33.91564938 39.17218331 -43.68380302 31.14535955 -56.30078125 27.35546875 C-69.75355408 24.05573202 -82.73586784 25.9339651 -94.7109375 33.015625 C-106.94337396 41.44001957 -113.90072614 53.65743716 -117.37109375 67.91015625 C-120.04056557 83.12961244 -118.71539281 97.62194223 -110.37109375 110.84765625 C-102.01090622 122.07323064 -91.19059504 129.25554114 -77.37109375 131.84765625 C-63.15940802 133.21933139 -49.97611991 130.53694373 -38.37109375 121.84765625 C-32.21026286 116.62327166 -27.80999739 111.15748661 -24.37109375 103.84765625 C-20.96143246 104.41418178 -19.64586436 105.31137767 -17.5234375 108.00390625 C-14.0674419 112.13818136 -10.37429794 115.95199861 -6.5625 119.75390625 C-5.94724457 120.36814453 -5.33198914 120.98238281 -4.6980896 121.61523438 C-2.77854219 123.52801313 -0.85613893 125.43789106 1.06640625 127.34765625 C2.38369684 128.6599221 3.70075611 129.9724202 5.01757812 131.28515625 C8.21869235 134.47534131 11.4229249 137.66236276 14.62890625 140.84765625 C12.93494492 145.47328564 10.48314108 148.61310125 7.12890625 152.16015625 C6.58919189 152.73411133 6.04947754 153.30806641 5.4934082 153.89941406 C-12.00452814 172.19892033 -36.17592259 184.36404398 -61.703125 185.28125 C-64.19650407 185.30476159 -66.69018779 185.3056191 -69.18359375 185.28515625 C-71.15525513 185.27270874 -71.15525513 185.27270874 -73.16674805 185.26000977 C-83.08340125 185.08796682 -92.02088042 184.1526162 -101.37109375 180.84765625 C-102.06412598 180.61159668 -102.7571582 180.37553711 -103.47119141 180.13232422 C-130.84053273 170.57800317 -151.28689335 150.72355921 -163.83984375 124.81640625 C-175.69856121 97.9173642 -175.12900712 67.51651648 -165.1015625 40.140625 C-154.62008619 13.25651525 -134.60038386 -8.06088105 -108.55615234 -20.20214844 C-71.27472393 -36.41436289 -29.48007756 -26.760334 0 0 Z " fill="#000000" transform="translate(1265.37109375,108.15234375)"/>
<path d="M0 0 C14 0 14 0 18.140625 4.05078125 C19.2278148 5.77370068 20.26400831 7.52973434 21.25 9.3125 C21.79011719 10.19357422 22.33023438 11.07464844 22.88671875 11.98242188 C23.88119803 13.61302069 24.85549455 15.25623909 25.80175781 16.9152832 C26.79955588 18.65126481 27.88931994 20.33397992 29 22 C32.08459315 20.582143 34.84931945 18.81435098 37.66723633 16.9284668 C59.6159506 2.31717956 79.71235175 0.38042439 105.51745605 0.7253418 C108.96400805 0.76689874 112.41068759 0.78488544 115.85742188 0.8046875 C122.57225782 0.84493225 129.28509031 0.92328253 136 1 C136 17.83 136 34.66 136 52 C113.1875 52.375 113.1875 52.375 106.05541992 52.47802734 C104.15542288 52.51328714 102.25543806 52.54921421 100.35546875 52.5859375 C99.39692993 52.59729736 98.43839111 52.60865723 97.45080566 52.62036133 C84.7538069 52.88766657 73.27479919 54.80039682 63.6875 63.6875 C54.63832502 73.3947968 52.70732115 84.76503759 52.68115234 97.55664062 C52.66608391 99.25551422 52.66608391 99.25551422 52.65071106 100.9887085 C52.61995968 104.71121744 52.60286608 108.43365471 52.5859375 112.15625 C52.56721941 114.74557102 52.54764552 117.33488597 52.5272522 119.92419434 C52.48122469 126.02961469 52.4437923 132.13503164 52.41057932 138.24053335 C52.36849504 145.87916879 52.31316557 153.51770116 52.2578125 161.15625 C52.15921236 174.77077655 52.08053511 188.38532801 52 202 C34.84 202 17.68 202 0 202 C0 135.34 0 68.68 0 0 Z " fill="#000000" transform="translate(676,88)"/>
<path d="M0 0 C17.16 0 34.32 0 52 0 C52 66.66 52 133.32 52 202 C34.84 202 17.68 202 0 202 C0 135.34 0 68.68 0 0 Z " fill="#000000" transform="translate(1026,88)"/>
<path d="M0 0 C17.16 0 34.32 0 52 0 C52 66.66 52 133.32 52 202 C34.84 202 17.68 202 0 202 C0 135.34 0 68.68 0 0 Z " fill="#000000" transform="translate(220,88)"/>
<path d="M0 0 C19.8 0 39.6 0 60 0 C58.12915467 6.23615109 56.26256491 12.3509647 54 18.4375 C53.62875 19.47680664 53.62875 19.47680664 53.25 20.53710938 C51.35349322 25.6487878 51.35349322 25.6487878 49.67578125 27.31567383 C47.2746031 29.72909574 45.53844099 32.55137293 43.6875 35.390625 C42.78970708 36.75237831 41.8912315 38.11368172 40.9921875 39.47460938 C40.50975586 40.20607178 40.02732422 40.93753418 39.53027344 41.69116211 C36.81668678 45.78535308 34.06313654 49.85252383 31.3125 53.921875 C30.1159373 55.69382774 28.91940466 57.46580078 27.72290039 59.23779297 C27.11463409 60.13834412 26.5063678 61.03889526 25.87966919 61.96673584 C14.85422147 78.29233912 3.8654323 94.640709 -7.03759766 111.04833984 C-10.39494254 116.09814074 -13.76040094 121.1425309 -17.125 126.1875 C-18.27347313 127.9101325 -19.42191471 129.63278602 -20.5703125 131.35546875 C-21.38020833 132.5703125 -22.19010417 133.78515625 -23 135 C-25.6022677 132.65302563 -27.12691337 130.22081381 -28.77734375 127.140625 C-29.29103516 126.18929687 -29.80472656 125.23796875 -30.33398438 124.2578125 C-30.86314453 123.26523438 -31.39230469 122.27265625 -31.9375 121.25 C-32.98767362 119.29654822 -34.03844208 117.34341609 -35.08984375 115.390625 C-35.58597168 114.46443359 -36.08209961 113.53824219 -36.59326172 112.58398438 C-37.81639218 110.33726226 -39.0819062 108.12637531 -40.37890625 105.921875 C-42 103 -42 103 -42 101 C-50.13396762 105.28206468 -56.95216857 110.89822776 -64 116.71875 C-67.56749952 119.6619371 -71.18578227 122.52360668 -74.875 125.3125 C-75.82117188 126.03050781 -76.76734375 126.74851562 -77.7421875 127.48828125 C-80 129 -80 129 -82 129 C-70.38325357 92.58521572 -70.38325357 92.58521572 -56.5 84.9375 C-53.94289097 83.62511737 -51.37136356 82.40335095 -48.74365234 81.23876953 C-44.79197745 79.4545732 -40.98784782 77.41488449 -37.16015625 75.38110352 C-35.29523605 74.39476155 -33.42169933 73.42450266 -31.5390625 72.47241211 C-30.69730469 72.04581299 -29.85554688 71.61921387 -28.98828125 71.1796875 C-27.86740112 70.61870361 -27.86740112 70.61870361 -26.72387695 70.04638672 C-24.83172729 69.10723944 -24.83172729 69.10723944 -24 67 C-25.30203369 67.49983398 -25.30203369 67.49983398 -26.63037109 68.00976562 C-29.84600108 69.24240224 -33.06273606 70.4720624 -36.28027344 71.69970703 C-37.67363368 72.2320421 -39.0665404 72.76556577 -40.45898438 73.30029297 C-42.45845906 74.06789756 -44.45951617 74.83123788 -46.4609375 75.59375 C-47.66540527 76.05458984 -48.86987305 76.51542969 -50.11083984 76.99023438 C-53 78 -53 78 -55 78 C-57.00645249 74.04490505 -59.00406136 70.08540979 -61 66.125 C-61.57234375 64.99707031 -62.1446875 63.86914062 -62.734375 62.70703125 C-63.27578125 61.63066406 -63.8171875 60.55429688 -64.375 59.4453125 C-65.12910156 57.95281982 -65.12910156 57.95281982 -65.8984375 56.43017578 C-67 54 -67 54 -67 52 C-59.79303342 50.14357403 -52.58465005 48.29273083 -45.37524414 46.44580078 C-42.92178731 45.81655935 -40.46866026 45.18603064 -38.01586914 44.55419922 C-34.49450785 43.64734369 -30.97199466 42.7450924 -27.44921875 41.84375 C-26.34913986 41.55939087 -25.24906097 41.27503174 -24.11564636 40.98205566 C-23.09481461 40.72178589 -22.07398285 40.46151611 -21.0222168 40.19335938 C-20.12286911 39.96241577 -19.22352142 39.73147217 -18.29692078 39.49353027 C-16 39 -16 39 -13 39 C-12.01 35.37 -11.02 31.74 -10 28 C-6.7 18.76 -3.4 9.52 0 0 Z " fill="#04A81B" transform="translate(154,88)"/>
<path d="M0 0 C0.88171875 0.55880859 0.88171875 0.55880859 1.78125 1.12890625 C2.833125 1.72703125 3.885 2.32515625 4.96875 2.94140625 C11.7886929 8.24580628 17.16165548 15.49616188 18.78125 24.12890625 C19.64875145 36.21704115 18.5690356 44.96029749 10.59375 54.44140625 C3.28905121 62.05694328 -4.71410721 65.87778564 -15.25390625 66.23046875 C-24.93480011 65.93046489 -32.83748421 62.87123745 -40.21875 56.56640625 C-40.87875 55.76203125 -41.53875 54.95765625 -42.21875 54.12890625 C-42.899375 53.38640625 -43.58 52.64390625 -44.28125 51.87890625 C-50.67755642 42.80027778 -51.45431894 33.9921798 -50.21875 23.12890625 C-48.23522437 13.99764624 -42.00046853 6.1960718 -34.21875 1.12890625 C-24.45549021 -4.55153581 -10.0626541 -5.55381102 0 0 Z " fill="#000000" transform="translate(1068.21875,2.87109375)"/>
<path d="M0 0 C1.03125 0.5775 2.0625 1.155 3.125 1.75 C10.44757595 7.48071161 15.05738184 13.80417438 17 23 C18.07738112 33.48502859 17.26982352 41.94280849 11.15234375 50.62109375 C4.27233893 59.02443902 -3.81962318 63.87136402 -14.6875 65 C-25.27035007 65.32795483 -33.82116482 62.60340905 -41.8125 55.5 C-42.534375 54.675 -43.25625 53.85 -44 53 C-44.680625 52.278125 -45.36125 51.55625 -46.0625 50.8125 C-52.26752984 41.80519862 -53.17137055 32.63646293 -52 22 C-49.67161536 12.31705427 -44.19869271 4.9287489 -35.78125 -0.40625 C-25.21563 -5.92560373 -10.23188324 -6.47644477 0 0 Z " fill="#000000" transform="translate(264,4)"/>
<path d="M0 0 C19.8 0 39.6 0 60 0 C59.01 3.3 58.02 6.6 57 10 C56.63519531 11.22589844 56.27039063 12.45179687 55.89453125 13.71484375 C55.53746094 14.77832031 55.18039063 15.84179688 54.8125 16.9375 C54.29623047 18.55978516 54.29623047 18.55978516 53.76953125 20.21484375 C50.07058175 26.03681062 41.77716155 26.62344501 35.42041016 28.04248047 C34.3535498 28.27596191 33.28668945 28.50944336 32.1875 28.75 C21.26688584 31.19341072 10.43897767 33.904967 -0.36645508 36.81542969 C-1.43919678 37.10063477 -2.51193848 37.38583984 -3.6171875 37.6796875 C-4.56190918 37.93476074 -5.50663086 38.18983398 -6.47998047 38.45263672 C-9 39 -9 39 -13 39 C-9.39444872 25.77964532 -4.60888599 12.90488077 0 0 Z " fill="#000000" transform="translate(154,88)"/>
<path d="M0 0 C-2.78473875 1.53378536 -5.57878338 3.0497558 -8.375 4.5625 C-9.1690625 5.00013672 -9.963125 5.43777344 -10.78125 5.88867188 C-11.54179687 6.29794922 -12.30234375 6.70722656 -13.0859375 7.12890625 C-14.1385376 7.70233765 -14.1385376 7.70233765 -15.21240234 8.28735352 C-15.80230957 8.52252686 -16.3922168 8.7577002 -17 9 C-17.66 8.67 -18.32 8.34 -19 8 C-16.565858 3.94019889 -13.86562227 2.81477587 -9.5 1.1875 C-7.78296875 0.52814453 -7.78296875 0.52814453 -6.03125 -0.14453125 C-3 -1 -3 -1 0 0 Z " fill="#000D02" transform="translate(149,148)"/>
<path d="M0 0 C-4.95 2.475 -4.95 2.475 -10 5 C-10.33 4.01 -10.66 3.02 -11 2 C-9.73392393 1.46770674 -8.46189588 0.94955456 -7.1875 0.4375 C-6.47980469 0.14746094 -5.77210938 -0.14257812 -5.04296875 -0.44140625 C-3 -1 -3 -1 0 0 Z " fill="#001D04" transform="translate(149,148)"/>
</svg>

